<svg id="Layer_1" data-name="Layer 1" xmlns="http://www.w3.org/2000/svg" xmlns:xlink="http://www.w3.org/1999/xlink" viewBox="0 0 49 49"><defs><linearGradient id="linear-gradient" x1="34.48" y1="50.94" x2="17.17" y2="5.08" gradientTransform="translate(45.23 -3.26) rotate(81.75)" gradientUnits="userSpaceOnUse"><stop offset="0" stop-color="#fff"/><stop offset="1" stop-color="#c7c7c7"/></linearGradient><linearGradient id="linear-gradient-2" x1="32.76" y1="39.96" x2="16.08" y2="8.75" gradientUnits="userSpaceOnUse"><stop offset="0" stop-color="#1b77f1"/><stop offset="0.21" stop-color="#2079f2"/><stop offset="0.46" stop-color="#2e80f4"/><stop offset="0.73" stop-color="#458cf7"/><stop offset="1" stop-color="#659cfc"/></linearGradient><linearGradient id="linear-gradient-3" x1="21.76" y1="14.78" x2="30.69" y2="39.13" gradientUnits="userSpaceOnUse"><stop offset="0" stop-color="#fff"/><stop offset="1" stop-color="#dbdbdb"/></linearGradient></defs><circle cx="24.5" cy="24.5" r="24.5" transform="translate(-3.26 45.23) rotate(-81.75)" fill="url(#linear-gradient)"/><circle cx="24.5" cy="24.5" r="19.68" fill="url(#linear-gradient-2)"/><path d="M17.61,25.83h3.28c.21,0,.19,0,.19.19V36h4.47V26c0-.2,0-.18.19-.18h3c.13,0,.13,0,.15-.12.19-1.27.39-2.53.58-3.8,0-.21,0-.22-.19-.22h-3.6c-.14,0-.14,0-.14-.13V19a2.84,2.84,0,0,1,.05-.58A1.88,1.88,0,0,1,27,16.89a3.2,3.2,0,0,1,.93-.11h1.6c.17,0,.15,0,.15-.16V13.34c0-.06,0-.09-.08-.1l-.5-.07c-.72-.09-1.44-.16-2.17-.18a7.57,7.57,0,0,0-1.84.12,5,5,0,0,0-2,.86,4.58,4.58,0,0,0-1.71,2.45,7.18,7.18,0,0,0-.3,2.16v3c0,.14,0,.13-.14.13H17.52c-.05,0-.08,0-.08.07a.21.21,0,0,1,0,.08v3.82C17.44,25.84,17.42,25.83,17.61,25.83Z" fill="url(#linear-gradient-3)"/></svg>