<svg id="Layer_1" data-name="Layer 1" xmlns="http://www.w3.org/2000/svg" xmlns:xlink="http://www.w3.org/1999/xlink" viewBox="0 0 49 49"><defs><linearGradient id="linear-gradient" x1="34.48" y1="50.94" x2="17.17" y2="5.08" gradientTransform="translate(24.5 -10.15) rotate(45)" gradientUnits="userSpaceOnUse"><stop offset="0" stop-color="#fff"/><stop offset="1" stop-color="#c7c7c7"/></linearGradient><radialGradient id="Degradado_sin_nombre_2" cx="11.81" cy="41.51" r="39.12" gradientTransform="translate(40.95 -5.99) rotate(73.35)" gradientUnits="userSpaceOnUse"><stop offset="0" stop-color="#ffd23c"/><stop offset="0.46" stop-color="#ff64a6"/><stop offset="1" stop-color="#7914cb"/></radialGradient><linearGradient id="linear-gradient-2" x1="18.43" y1="15.18" x2="36.36" y2="42.76" gradientUnits="userSpaceOnUse"><stop offset="0" stop-color="#fff"/><stop offset="1" stop-color="#dbdbdb"/></linearGradient><linearGradient id="linear-gradient-3" x1="18.43" y1="15.17" x2="36.37" y2="42.75" xlink:href="#linear-gradient-2"/><linearGradient id="linear-gradient-4" x1="25.2" y1="10.77" x2="43.14" y2="38.35" xlink:href="#linear-gradient-2"/></defs><circle cx="24.5" cy="24.5" r="24.5" transform="translate(-10.15 24.5) rotate(-45)" fill="url(#linear-gradient)"/><circle cx="24.5" cy="24.5" r="19.68" transform="translate(-5.99 40.95) rotate(-73.35)" fill="url(#Degradado_sin_nombre_2)"/><path d="M35.38,20.12A8.41,8.41,0,0,0,35,17.58,5.55,5.55,0,0,0,31.31,14a9.64,9.64,0,0,0-2.73-.4q-4.09-.11-8.19,0a9.54,9.54,0,0,0-2.43.32,5.58,5.58,0,0,0-3.84,3.4,7,7,0,0,0-.44,1.85c-.09.84-.11,1.68-.12,2.51,0,1.63,0,3.25,0,4.88,0,.26,0,.51,0,.77,0,.63,0,1.26.07,1.89a8.33,8.33,0,0,0,.11,1,5.86,5.86,0,0,0,1.6,3.33,5.28,5.28,0,0,0,1.37,1,7.25,7.25,0,0,0,2.23.7,8.77,8.77,0,0,0,1.14.1c.48,0,1,0,1.45,0,2.5,0,5,0,7.5-.06A8.48,8.48,0,0,0,31.21,35,6.12,6.12,0,0,0,33,34.16a5.84,5.84,0,0,0,2.17-3.39,11.59,11.59,0,0,0,.26-2.56C35.46,25.51,35.47,22.81,35.38,20.12Zm-1.92,7.21c0,.7,0,1.39-.09,2.08a4.65,4.65,0,0,1-.75,2.31,3.2,3.2,0,0,1-.79.81,3.64,3.64,0,0,1-1.48.68,5.89,5.89,0,0,1-1.26.18c-2.7.12-5.41.08-8.11,0a11.49,11.49,0,0,1-2.19-.18A3.86,3.86,0,0,1,16.54,32a4,4,0,0,1-.79-1.7,9.6,9.6,0,0,1-.19-1.85c0-.71-.05-1.43,0-2.15,0-1.93,0-3.86.05-5.79a8.61,8.61,0,0,1,.21-1.82,3.63,3.63,0,0,1,2.43-2.73,6.2,6.2,0,0,1,1.86-.31c2.71-.11,5.42-.08,8.12,0a10.71,10.71,0,0,1,1.79.14,3.86,3.86,0,0,1,2.68,1.63,4.08,4.08,0,0,1,.65,1.81,27.48,27.48,0,0,1,.15,3.63C33.47,24.3,33.46,25.81,33.46,27.33Z" fill="url(#linear-gradient-2)"/><path d="M27,19.5a5.6,5.6,0,0,0-6.3.82,4.81,4.81,0,0,0-.91,1.05,5.6,5.6,0,0,0-.7,4.82A5.78,5.78,0,0,0,20,27.9a4.93,4.93,0,0,0,.84.87,5.12,5.12,0,0,0,1.21.81,5.35,5.35,0,0,0,2.12.53A6.81,6.81,0,0,0,25.74,30a6,6,0,0,0,1.91-.83A5.62,5.62,0,0,0,29,27.82a5.62,5.62,0,0,0-2-8.32Zm-.69,8.14a3.12,3.12,0,0,1-.82.35,3.64,3.64,0,0,1-3.94-5.68,3.65,3.65,0,0,1,6.48,1.47A3.61,3.61,0,0,1,26.35,27.64Z" fill="url(#linear-gradient-3)"/><path d="M30.33,17.35A1.3,1.3,0,0,0,29,18.67,1.28,1.28,0,0,0,30.35,20a1.31,1.31,0,0,0,0-2.62Z" fill="url(#linear-gradient-4)"/></svg>