<svg id="Layer_1" data-name="Layer 1" xmlns="http://www.w3.org/2000/svg" xmlns:xlink="http://www.w3.org/1999/xlink" viewBox="0 0 49 49"><defs><linearGradient id="linear-gradient" x1="34.48" y1="50.94" x2="17.17" y2="5.08" gradientTransform="translate(44.98 -3.45) rotate(81.23)" gradientUnits="userSpaceOnUse"><stop offset="0" stop-color="#fff"/><stop offset="1" stop-color="#c7c7c7"/></linearGradient><linearGradient id="linear-gradient-2" x1="15.22" y1="9.26" x2="35.17" y2="42.02" gradientUnits="userSpaceOnUse"><stop offset="0" stop-color="#69c1f6"/><stop offset="0.03" stop-color="#65bff4"/><stop offset="0.28" stop-color="#48b0e7"/><stop offset="0.52" stop-color="#34a5de"/><stop offset="0.77" stop-color="#279ed9"/><stop offset="1" stop-color="#239cd7"/></linearGradient></defs><circle cx="24.5" cy="24.5" r="24.5" transform="translate(-3.45 44.98) rotate(-81.23)" fill="url(#linear-gradient)"/><circle cx="24.5" cy="24.5" r="19.68" fill="url(#linear-gradient-2)"/><path d="M30.08,30.06c-.11.41-.21.82-.32,1.22a1.17,1.17,0,0,1-.2.42.94.94,0,0,1-1.17.29,1.06,1.06,0,0,1-.33-.18c-.75-.62-1.55-1.17-2.34-1.73L24.12,29,24,28.93,24,28.88c-1-.66-1.95-1.3-2.93-1.94L21,26.88a.16.16,0,0,1,0-.24.76.76,0,0,1,.09-.09l1.12-1,1.31-1.15,1.72-1.55c.46-.41.92-.82,1.37-1.24l1.22-1.16c.42-.4.84-.8,1.21-1.23a1.49,1.49,0,0,0,.24-.32c0-.08,0-.11-.07-.11a.31.31,0,0,0-.16.06c-.45.25-.89.51-1.33.77L25.31,21l-3.62,2.21-3.24,2a.58.58,0,0,1-.38.13c-.29-.09-.58-.17-.86-.27L13.56,24a.67.67,0,0,1-.35-.25.48.48,0,0,1,.08-.64,2.11,2.11,0,0,1,.58-.34c.72-.31,1.45-.61,2.19-.88l2-.75,2.27-.83L24,18.93l3.74-1.34L29,17.14l1.7-.61L32,16.1a1.39,1.39,0,0,1,.6-.08c.34,0,.45.18.49.48a3.08,3.08,0,0,1-.05.91c-.22,1.39-.55,2.76-.86,4.12q-1,4.24-2.06,8.46A.15.15,0,0,0,30.08,30.06Z" fill="#fff"/><path d="M18.07,25.38a.58.58,0,0,0,.38-.13l3.24-2L25.31,21l2.34-1.4c.44-.26.88-.52,1.33-.77a.31.31,0,0,1,.16-.06c.09,0,.11,0,.07.11a1.49,1.49,0,0,1-.24.32c-.37.43-.79.83-1.21,1.23l-1.22,1.16c-.45.42-.91.83-1.37,1.24l-1.72,1.55-1.31,1.15-1.12,1a.76.76,0,0,0-.09.09.16.16,0,0,0,0,.24l.07.06c1,.64,2,1.28,2.93,1.94l.07.05c-.87.71-1.7,1.46-2.5,2.24a2.12,2.12,0,0,1-.51.38.4.4,0,0,1-.58-.09,1.32,1.32,0,0,1-.29-.46c-.35-.94-.7-1.88-1-2.81a.59.59,0,0,0,0-.08l-.35-1C18.5,26.55,18.29,26,18.07,25.38Z" fill="#c7d9e9"/><path d="M21,26.94,21,26.88a.24.24,0,0,1-.06-.09l-.16,4.84a.48.48,0,0,0,.28-.08,2.12,2.12,0,0,0,.51-.38c.8-.78,1.63-1.53,2.5-2.24L24,28.88C23,28.22,22,27.58,21,26.94Z" fill="#a7c5d7"/></svg>