<svg xmlns="http://www.w3.org/2000/svg" xmlns:xlink="http://www.w3.org/1999/xlink" viewBox="0 0 49 49"><defs><linearGradient id="linear-gradient" x1="34.48" y1="50.94" x2="17.17" y2="5.08" gradientTransform="translate(44.83 -3.55) rotate(80.94)" gradientUnits="userSpaceOnUse"><stop offset="0" stop-color="#fff"/><stop offset="1" stop-color="#c7c7c7"/></linearGradient><radialGradient id="Degradado_sin_nombre_509" cx="24.62" cy="24.45" r="19.98" gradientTransform="translate(-0.08 0.01) rotate(0.09)" gradientUnits="userSpaceOnUse"><stop offset="0" stop-color="#ff001f"/><stop offset="1" stop-color="#eb0900"/></radialGradient><radialGradient id="Degradado_sin_nombre_508" cx="19.02" cy="9.84" r="30.04" gradientTransform="translate(-0.08 0.01) rotate(0.09)" gradientUnits="userSpaceOnUse"><stop offset="0" stop-color="#ff1605" stop-opacity="0"/><stop offset="1" stop-color="#a50000"/></radialGradient><radialGradient id="Degradado_sin_nombre_507" cx="14.9" cy="11.13" r="31.86" gradientTransform="translate(-0.08 0.01) rotate(0.09)" gradientUnits="userSpaceOnUse"><stop offset="0" stop-color="#fff" stop-opacity="0.5"/><stop offset="1" stop-color="#db2817" stop-opacity="0"/></radialGradient></defs><g style="isolation:isolate"><g id="Layer_1" data-name="Layer 1"><circle cx="24.5" cy="24.5" r="24.5" transform="translate(-3.55 44.83) rotate(-80.94)" fill="url(#linear-gradient)"/><path d="M24.47,44.45h0a20,20,0,0,1-20-19.93h0a20.06,20.06,0,0,1,20-20h0a20.06,20.06,0,0,1,20,20h0A20,20,0,0,1,24.47,44.45Z" fill="url(#Degradado_sin_nombre_509)"/><path d="M24.47,44.45h0a20.06,20.06,0,0,1-20-20h0a20,20,0,0,1,20-19.87h0a20,20,0,0,1,20,19.93h0A20.06,20.06,0,0,1,24.47,44.45Z" fill="url(#Degradado_sin_nombre_508)" style="mix-blend-mode:multiply"/><path d="M24.47,44.35h0a20.05,20.05,0,0,1-20-20h0a19.89,19.89,0,0,1,20-19.77h0a19.89,19.89,0,0,1,20,19.83h0A20.06,20.06,0,0,1,24.47,44.35Z" fill="url(#Degradado_sin_nombre_507)"/><path d="M19.42,25.88c.23.37.65,1.3,0,1.73s-1,.75-1.93,0S14.81,24.82,16,20a8.44,8.44,0,0,1,7.29-6.56,13,13,0,0,1,5.68.24,7.6,7.6,0,0,1,5.36,5.68,12.79,12.79,0,0,1,0,6.53c-.64,3-3.32,4.83-5.78,5.48a5.18,5.18,0,0,1-5.15-1.61s-.28,5.81-2.36,7.82c-.32.32-1.73,1.32-1.71-.53,0-2.72,1.6-6.06,1.71-10.72,0-2.3-.44-3.62.22-5.75a2.2,2.2,0,0,1,2.68-1.65c.85.11,2.06.91,1.17,4.72-.24,1.05-1.15,3.61-.53,4.29.8.87,2.25,1.93,4.72-.11a8.29,8.29,0,0,0,2-4,7.4,7.4,0,0,0-.85-5.55,7.32,7.32,0,0,0-5-2.43c-2.83,0-5.89,2-6.57,4A8.1,8.1,0,0,0,19.42,25.88Z" fill="#fff"/></g></g></svg>