<svg id="Layer_1" data-name="Layer 1" xmlns="http://www.w3.org/2000/svg" xmlns:xlink="http://www.w3.org/1999/xlink" viewBox="0 0 49 49"><defs><linearGradient id="linear-gradient" x1="34.48" y1="50.94" x2="17.17" y2="5.08" gradientTransform="translate(24.5 -10.15) rotate(45)" gradientUnits="userSpaceOnUse"><stop offset="0" stop-color="#fff"/><stop offset="1" stop-color="#c7c7c7"/></linearGradient></defs><circle cx="24.5" cy="24.5" r="24.5" transform="translate(-10.15 24.5) rotate(-45)" fill="url(#linear-gradient)"/><circle cx="24.5" cy="24.5" r="19.68" fill="#ed1c24"/><path d="M18.8,24.71c.23.36.64,1.28,0,1.7s-1,.75-1.91,0-2.66-2.76-1.49-7.55a8.35,8.35,0,0,1,7.23-6.51,12.79,12.79,0,0,1,5.64.23,7.57,7.57,0,0,1,5.32,5.64,12.86,12.86,0,0,1,0,6.49c-.64,3-3.3,4.79-5.74,5.43a5.11,5.11,0,0,1-5.11-1.6s-.28,5.77-2.34,7.77c-.32.31-1.72,1.31-1.71-.53,0-2.7,1.6-6,1.71-10.64.05-2.28-.44-3.59.21-5.71a2.19,2.19,0,0,1,2.66-1.63c.85.1,2.05.9,1.17,4.68-.25,1-1.15,3.58-.53,4.25.79.87,2.23,1.92,4.68-.1a8.16,8.16,0,0,0,2-4,7.37,7.37,0,0,0-.84-5.5,7.25,7.25,0,0,0-5-2.41c-2.81,0-5.84,1.93-6.52,4A8.1,8.1,0,0,0,18.8,24.71Z" fill="#fff"/></svg>