<svg id="Layer_1" data-name="Layer 1" xmlns="http://www.w3.org/2000/svg" xmlns:xlink="http://www.w3.org/1999/xlink" viewBox="0 0 49 49"><defs><linearGradient id="linear-gradient" x1="34.48" y1="50.94" x2="17.17" y2="5.08" gradientTransform="translate(24.5 -10.15) rotate(45)" gradientUnits="userSpaceOnUse"><stop offset="0" stop-color="#fff"/><stop offset="1" stop-color="#c7c7c7"/></linearGradient><radialGradient id="radial-gradient" cx="-56.01" cy="-78.11" r="8.52" gradientTransform="translate(-120.61 197.44) rotate(75.64) scale(2.35)" gradientUnits="userSpaceOnUse"><stop offset="0" stop-color="#39e65e"/><stop offset="1" stop-color="#7fcc76"/></radialGradient><radialGradient id="radial-gradient-2" cx="30.76" cy="225.2" r="3.04" gradientTransform="matrix(1.76, 1.28, -2.32, 3.19, 485.28, -740.68)" gradientUnits="userSpaceOnUse"><stop offset="0" stop-color="#fff" stop-opacity="0.6"/><stop offset="1" stop-color="#fff" stop-opacity="0"/></radialGradient></defs><circle cx="24.5" cy="24.5" r="24.5" transform="translate(-10.15 24.5) rotate(-45)" fill="url(#linear-gradient)"/><circle cx="24.5" cy="24.5" r="20" transform="translate(-5.31 42.16) rotate(-75.64)" fill="url(#radial-gradient)"/><path d="M22.87,22.55c4.25-5.83,4.66-12.78.92-15.5S13.56,6.84,9.32,12.68,4.66,25.45,8.4,28.18,18.62,28.39,22.87,22.55Z" fill="url(#radial-gradient-2)"/><path d="M37.76,23.74,16.06,12a.84.84,0,0,0-.85,0,.85.85,0,0,0-.43.74V36.22a.85.85,0,0,0,.43.74.78.78,0,0,0,.44.13.87.87,0,0,0,.41-.11l21.7-11.72a.86.86,0,0,0,0-1.52m-8-2.36L28.11,23.2l-4.74-5.26ZM18.81,33.52l-2.29,1.24V14.24l2.29,1.24,8.12,9-8.11,9Zm4.56-2.45,4.74-5.27,1.64,1.82Zm8-4.3-2-2.27,2-2.27,4.2,2.27Z" fill="#fff"/></svg>