<svg id="Layer_1" data-name="Layer 1" xmlns="http://www.w3.org/2000/svg" xmlns:xlink="http://www.w3.org/1999/xlink" viewBox="0 0 49 49"><defs><linearGradient id="linear-gradient" x1="34.48" y1="50.94" x2="17.17" y2="5.08" gradientTransform="translate(45.23 -3.26) rotate(81.75)" gradientUnits="userSpaceOnUse"><stop offset="0" stop-color="#fff"/><stop offset="1" stop-color="#c7c7c7"/></linearGradient><linearGradient id="Degradado_sin_nombre_4" x1="10.6" y1="10.6" x2="37.82" y2="37.82" gradientUnits="userSpaceOnUse"><stop offset="0" stop-color="#143746"/><stop offset="1" stop-color="#13091f"/></linearGradient><radialGradient id="Degradado_sin_nombre_477" cx="14.78" cy="11.16" r="31.95" gradientUnits="userSpaceOnUse"><stop offset="0" stop-color="#143746" stop-opacity="0"/><stop offset="1"/></radialGradient><radialGradient id="Degradado_sin_nombre_476" cx="14.78" cy="11.16" r="31.95" gradientUnits="userSpaceOnUse"><stop offset="0" stop-color="#fff" stop-opacity="0.5"/><stop offset="1" stop-color="#111428" stop-opacity="0"/></radialGradient><linearGradient id="Degradado_sin_nombre_228" x1="80.81" y1="80.77" x2="115.78" y2="115.33" gradientUnits="userSpaceOnUse"><stop offset="0" stop-color="#ff5a77"/><stop offset="1" stop-color="#ff0560"/></linearGradient></defs><circle cx="24.5" cy="24.5" r="24.5" transform="translate(-3.26 45.23) rotate(-81.75)" fill="url(#linear-gradient)"/><path d="M24.5,44.5h0a20.06,20.06,0,0,1-20-20h0a20.06,20.06,0,0,1,20-20h0a20.06,20.06,0,0,1,20,20h0A20.06,20.06,0,0,1,24.5,44.5Z" fill="url(#Degradado_sin_nombre_4)"/><path d="M24.5,44.5h0a20.06,20.06,0,0,1-20-20h0a20.06,20.06,0,0,1,20-20h0a20.06,20.06,0,0,1,20,20h0A20.06,20.06,0,0,1,24.5,44.5Z" fill="url(#Degradado_sin_nombre_477)"/><path d="M24.5,44.5h0a20.06,20.06,0,0,1-20-20h0a20.06,20.06,0,0,1,20-20h0a20.06,20.06,0,0,1,20,20h0A20.06,20.06,0,0,1,24.5,44.5Z" fill="url(#Degradado_sin_nombre_476)"/><path d="M29.75,14H25.48V30.09c0,1.72-1.16,2.51-2.88,2.51a3.12,3.12,0,1,1,0-6.24,3.17,3.17,0,0,1,.76.1V22.37a6.33,6.33,0,0,0-.76-.05,7.16,7.16,0,0,0,0,14.32c3.75,0,6.81-2.33,7.13-5.94h0v-.35c0-.09,0-.17,0-.26h0V22.32c1.9,1.6,5.48,1.37,5.48,1.37V19.51C29.82,19.51,29.75,14,29.75,14Z" fill="url(#Degradado_sin_nombre_228)"/><path d="M28.08,12.36H23.82V28.42c0,1.73-1.16,2.52-2.89,2.52a3.13,3.13,0,0,1,0-6.25,2.68,2.68,0,0,1,.76.11V20.7a6.33,6.33,0,0,0-.76-.05,7.16,7.16,0,0,0,0,14.32c3.75,0,6.82-2.33,7.13-5.94h0v-.35c0-.09,0-.17,0-.26h0V20.65C30,22.25,33.56,22,33.56,22V17.84C28.16,17.84,28.08,12.36,28.08,12.36Z" fill="#00d7ca"/><path d="M28.91,13.19H24.65V29.26c0,1.72-1.16,2.51-2.88,2.51a3.12,3.12,0,1,1,0-6.24,3.23,3.23,0,0,1,.76.1V21.54a6.47,6.47,0,0,0-.76-.05,7.16,7.16,0,1,0,0,14.32c3.74,0,6.81-2.34,7.12-5.94h0v-.36a2.11,2.11,0,0,0,0-.25h0V21.49c1.91,1.59,5.48,1.37,5.48,1.37V18.67C29,18.67,28.91,13.19,28.91,13.19Z" fill="#fff"/></svg>