<svg id="Layer_1" data-name="Layer 1" xmlns="http://www.w3.org/2000/svg" xmlns:xlink="http://www.w3.org/1999/xlink" viewBox="0 0 49 49"><defs><linearGradient id="linear-gradient" x1="34.48" y1="50.94" x2="17.17" y2="5.08" gradientTransform="translate(45.23 -3.26) rotate(81.75)" gradientUnits="userSpaceOnUse"><stop offset="0" stop-color="#fff"/><stop offset="1" stop-color="#c7c7c7"/></linearGradient><linearGradient id="linear-gradient-2" x1="15.22" y1="9.26" x2="35.17" y2="42.02" gradientTransform="translate(39.09 -6.93) rotate(69.9)" gradientUnits="userSpaceOnUse"><stop offset="0" stop-color="#64da70"/><stop offset="0.04" stop-color="#5ed76c"/><stop offset="0.26" stop-color="#46c859"/><stop offset="0.48" stop-color="#34bd4c"/><stop offset="0.72" stop-color="#29b744"/><stop offset="1" stop-color="#26b541"/></linearGradient><linearGradient id="linear-gradient-3" x1="18.49" y1="15.72" x2="31.94" y2="39.78" gradientUnits="userSpaceOnUse"><stop offset="0" stop-color="#fff"/><stop offset="1" stop-color="#dbdbdb"/></linearGradient><linearGradient id="linear-gradient-4" x1="19.28" y1="15.28" x2="32.73" y2="39.34" xlink:href="#linear-gradient-3"/></defs><circle cx="24.5" cy="24.5" r="24.5" transform="translate(-3.26 45.23) rotate(-81.75)" fill="url(#linear-gradient)"/><circle cx="24.5" cy="24.5" r="19.68" transform="translate(-6.93 39.09) rotate(-69.9)" fill="url(#linear-gradient-2)"/><path d="M34.79,23.27a2.68,2.68,0,0,0,0-.52s0-.08,0-.12a9.63,9.63,0,0,0-.66-2.57A7.73,7.73,0,0,0,33.55,19l-.1-.18a1.92,1.92,0,0,0-.18-.31,10.27,10.27,0,0,0-8.61-4.89,9.26,9.26,0,0,0-1.34.07,9.82,9.82,0,0,0-1.88.4,10.38,10.38,0,0,0-6.81,6.86,9.89,9.89,0,0,0-.43,2.72.43.43,0,0,0,0,.05,2.76,2.76,0,0,0,0,.29v.12c0,.33,0,.67.07,1a10.64,10.64,0,0,0,.35,1.7,10.45,10.45,0,0,0,1.24,2.7c-.24.85-.48,1.71-.7,2.55l-.17.6a.71.71,0,0,0,.06.61l.13.23.27.07a.82.82,0,0,0,.43,0l.73-.2,2.52-.66.05,0,0,0a10.33,10.33,0,0,0,5.27,1.45c.33,0,.66,0,1-.05a9.83,9.83,0,0,0,2-.4A10.12,10.12,0,0,0,30.3,32.4a11.81,11.81,0,0,0,1.55-1.31,10.06,10.06,0,0,0,.81-.92c.23-.31.47-.65.73-1.07a8.61,8.61,0,0,0,.69-1.41.78.78,0,0,1,.05-.14,6.48,6.48,0,0,0,.26-.78c0-.12.06-.24.09-.37l.08-.29c0-.17.08-.35.11-.53a5.7,5.7,0,0,0,.1-.78A8.58,8.58,0,0,0,34.79,23.27Zm-1.3,1.42a5.74,5.74,0,0,1-.09.67,3.12,3.12,0,0,1-.09.44c0,.09-.05.17-.07.26s-.08.28-.11.43a4.11,4.11,0,0,1-.2.59l-.06.14a6.76,6.76,0,0,1-.57,1.2c-.24.38-.45.69-.66,1s-.46.55-.7.81a10.65,10.65,0,0,1-1.39,1.16,8.58,8.58,0,0,1-2.41,1.17,9.35,9.35,0,0,1-1.78.35,9,9,0,0,1-5.48-1.23l-.08,0-.1-.06a.84.84,0,0,0-.5-.17.82.82,0,0,0-.26,0l-2.46.64c.21-.78.43-1.58.65-2.36a1,1,0,0,0-.12-.77,9.13,9.13,0,0,1-1.17-2.49,10.05,10.05,0,0,1-.3-1.49,9.07,9.07,0,0,1-.06-.91h0l0-.13,0-.08v-.16a8.94,8.94,0,0,1,.38-2.37,9.06,9.06,0,0,1,6-6,8,8,0,0,1,1.63-.35,8.39,8.39,0,0,1,1.17-.06,9,9,0,0,1,7.55,4.28,2.55,2.55,0,0,1,.14.24l.12.22a7.63,7.63,0,0,1,.45.94,8.78,8.78,0,0,1,.57,2.24.59.59,0,0,0,0,.13,2.18,2.18,0,0,1,0,.34v.1A7.48,7.48,0,0,1,33.49,24.69Z" fill="url(#linear-gradient-3)"/><path d="M29.65,26.59l-.07,0c-.6-.35-1.21-.69-1.83-1a2.3,2.3,0,0,0-.43-.18.3.3,0,0,0-.33.1l-.18.21c-.19.21-.37.42-.56.62a2.89,2.89,0,0,1-.35.35.25.25,0,0,1-.2.06.43.43,0,0,1-.22-.06c-.32-.17-.66-.33-1-.53a7.16,7.16,0,0,1-1.12-.87,8.08,8.08,0,0,1-1.46-2,.4.4,0,0,1,.07-.62c.14-.12.26-.27.39-.4a2.89,2.89,0,0,0,.33-.45.57.57,0,0,0,0-.54l-.51-1.44q-.12-.36-.27-.72a.6.6,0,0,0-.59-.41l-.49,0a.85.85,0,0,0-.42.08,1.43,1.43,0,0,0-.42.31,3.11,3.11,0,0,0-.6.8,3.15,3.15,0,0,0-.34,1.81,4.38,4.38,0,0,0,.41,1.42c.09.2.2.39.29.59l.4.62a12.92,12.92,0,0,0,1.66,2.16,8.54,8.54,0,0,0,2.95,2.09,12.05,12.05,0,0,0,1.74.63,3.22,3.22,0,0,0,1.31.06,3.11,3.11,0,0,0,1.34-.65,1.38,1.38,0,0,0,.41-.49A3.18,3.18,0,0,0,29.89,27,.36.36,0,0,0,29.65,26.59Z" fill="url(#linear-gradient-4)"/></svg>