<svg id="Layer_1" data-name="Layer 1" xmlns="http://www.w3.org/2000/svg" xmlns:xlink="http://www.w3.org/1999/xlink" viewBox="0 0 49 49"><defs><linearGradient id="linear-gradient" x1="34.48" y1="50.94" x2="17.17" y2="5.08" gradientTransform="translate(24.5 -10.15) rotate(45)" gradientUnits="userSpaceOnUse"><stop offset="0" stop-color="#fff"/><stop offset="1" stop-color="#c7c7c7"/></linearGradient><linearGradient id="linear-gradient-2" x1="15.22" y1="9.26" x2="35.17" y2="42.02" gradientUnits="userSpaceOnUse"><stop offset="0" stop-color="#ff5e5e"/><stop offset="0.12" stop-color="#fe4c4c"/><stop offset="0.36" stop-color="#fd2b2b"/><stop offset="0.6" stop-color="#fd1313"/><stop offset="0.81" stop-color="#fc0505"/><stop offset="1" stop-color="#fc0000"/></linearGradient><linearGradient id="linear-gradient-3" x1="14.74" y1="24.5" x2="34.26" y2="24.5" gradientUnits="userSpaceOnUse"><stop offset="0" stop-color="#fff"/><stop offset="1" stop-color="#dbdbdb"/></linearGradient><linearGradient id="linear-gradient-4" x1="16.71" y1="14.39" x2="24.81" y2="25.61" xlink:href="#linear-gradient-2"/></defs><circle cx="24.5" cy="24.5" r="24.5" transform="translate(-10.15 24.5) rotate(-45)" fill="url(#linear-gradient)"/><circle cx="24.5" cy="24.5" r="19.68" fill="url(#linear-gradient-2)"/><path d="M24.46,17.86c1.91,0,3.79.06,5.66.15a9.31,9.31,0,0,1,1.82.2,2.57,2.57,0,0,1,1.58,1A3.38,3.38,0,0,1,34,20.3a8,8,0,0,1,.17,1.54c.05,1.06.12,2.12.11,3.19a21.87,21.87,0,0,1-.14,2.68c-.06.4-.11.81-.21,1.21a2.33,2.33,0,0,1-1.84,1.81,8,8,0,0,1-1.62.24c-1.42.06-2.84.14-4.26.16-1.91,0-3.83,0-5.75-.08L18.55,31A8.15,8.15,0,0,1,17,30.75a2.38,2.38,0,0,1-1.94-1.92,17.09,17.09,0,0,1-.29-2.36,40.56,40.56,0,0,1,.06-4.27c0-.49,0-1,.11-1.47a5.14,5.14,0,0,1,.21-.86A2.44,2.44,0,0,1,17,18.23,6.76,6.76,0,0,1,18.32,18c1.28-.06,2.55-.13,3.83-.16C22.93,17.86,23.71,17.85,24.46,17.86ZM22.53,27.3l5-2.8-5-2.81Z" fill="url(#linear-gradient-3)"/><path d="M22.53,27.3V21.69l5,2.81Z" fill="url(#linear-gradient-4)"/></svg>